<?xml version="1.0" standalone="no"?><!DOCTYPE svg PUBLIC "-//W3C//DTD SVG 1.1//EN" "http://www.w3.org/Graphics/SVG/1.1/DTD/svg11.dtd"><svg t="1749898309001" class="icon" viewBox="0 0 1024 1024" version="1.1" xmlns="http://www.w3.org/2000/svg" p-id="74653" xmlns:xlink="http://www.w3.org/1999/xlink" width="200" height="200"><path d="M910.273939 131.785697a64.294788 64.294788 0 0 1 64.232728 64.232727v631.932121a64.294788 64.294788 0 0 1-64.232728 64.232728H113.726061a64.294788 64.294788 0 0 1-64.232728-64.232728V196.049455a64.294788 64.294788 0 0 1 64.232728-64.232728h796.547878z m-798.72 64.232727V827.888485c0 1.241212 0.99297 2.265212 2.172122 2.265212h796.485818c1.241212 0 2.234182-1.024 2.234182-2.172121V196.111515a2.234182 2.234182 0 0 0-2.172122-2.265212H113.726061a2.234182 2.234182 0 0 0-2.172122 2.172121z" p-id="74654" data-spm-anchor-id="a313x.search_index.0.i70.38e73a81k9XS2f" class="selected" fill="#e98f36"></path><path d="M195.894303 256.341333h371.277576c16.539152 0 29.944242 9.681455 29.944242 21.597091v212.464485c0 11.915636-13.405091 21.597091-29.944242 21.597091H195.894303c-16.539152 0-29.944242-9.681455-29.944242-21.597091V277.938424c0-11.915636 13.405091-21.566061 29.944242-21.597091zM647.012848 540.951273l135.664485 135.633454v-67.863272c0-15.266909 10.922667-27.306667 25.662061-28.951273l3.475394-0.186182c16.446061 0 29.168485 12.722424 29.168485 29.168485v94.052848c0 20.076606-8.16097 38.756848-21.504 52.130909-15.018667 14.987636-30.782061 21.441939-52.099879 21.44194H673.357576c-16.446061 0-29.168485-12.722424-29.168485-29.168485s12.722424-29.137455 29.168485-29.137455h67.863272l-135.664484-135.602424a30.68897 30.68897 0 0 1-8.12994-16.880485l-0.279272-3.878788a30.72 30.72 0 0 1 8.409212-20.759272c12.101818-12.101818 29.416727-12.101818 41.487515 0z" p-id="74655" data-spm-anchor-id="a313x.search_index.0.i71.38e73a81k9XS2f" class="selected" fill="#e98f36"></path></svg>