<?xml version="1.0" standalone="no"?><!DOCTYPE svg PUBLIC "-//W3C//DTD SVG 1.1//EN" "http://www.w3.org/Graphics/SVG/1.1/DTD/svg11.dtd"><svg t="1749900742028" class="icon" viewBox="0 0 1024 1024" version="1.1" xmlns="http://www.w3.org/2000/svg" p-id="77602" xmlns:xlink="http://www.w3.org/1999/xlink" width="200" height="200"><path d="M192 128a64 64 0 0 0-64 64v640a64 64 0 0 0 64 64h640a64 64 0 0 0 64-64v-640a64 64 0 0 0-64-64h-640m0-128h640a192 192 0 0 1 192 192v640a192 192 0 0 1-192 192h-640a192 192 0 0 1-192-192v-640a192 192 0 0 1 192-192z" fill="#e98f36" p-id="77603" data-spm-anchor-id="a313x.search_index.0.i75.38e73a81k9XS2f" class="selected"></path><path d="M640 192m0 64l0 0q0 64-64 64l-128 0q-64 0-64-64l0 0q0-64 64-64l128 0q64 0 64 64Z" fill="#e98f36" p-id="77604" data-spm-anchor-id="a313x.search_index.0.i78.38e73a81k9XS2f" class="selected"></path><path d="M640 704m0 64l0 0q0 64-64 64l-128 0q-64 0-64-64l0 0q0-64 64-64l128 0q64 0 64 64Z" fill="#e98f36" p-id="77605" data-spm-anchor-id="a313x.search_index.0.i76.38e73a81k9XS2f" class="selected"></path><path d="M832 640m-64 0l0 0q-64 0-64-64l0-128q0-64 64-64l0 0q64 0 64 64l0 128q0 64-64 64Z" fill="#e98f36" p-id="77606" data-spm-anchor-id="a313x.search_index.0.i77.38e73a81k9XS2f" class="selected"></path><path d="M320 640m-64 0l0 0q-64 0-64-64l0-128q0-64 64-64l0 0q64 0 64 64l0 128q0 64-64 64Z" fill="#e98f36" p-id="77607" data-spm-anchor-id="a313x.search_index.0.i79.38e73a81k9XS2f" class="selected"></path></svg>