<?xml version="1.0" standalone="no"?><!DOCTYPE svg PUBLIC "-//W3C//DTD SVG 1.1//EN" "http://www.w3.org/Graphics/SVG/1.1/DTD/svg11.dtd"><svg t="1749883553297" class="icon" viewBox="0 0 1024 1024" version="1.1" xmlns="http://www.w3.org/2000/svg" p-id="48367" xmlns:xlink="http://www.w3.org/1999/xlink" width="200" height="200"><path d="M224 224h576v576H224z" fill="#EEEEEE" p-id="48368"></path><path d="M800 808H224a8 8 0 0 1-8-8V224a8 8 0 0 1 8-8h576a8 8 0 0 1 8 8v576a8 8 0 0 1-8 8z m-568-16h560v-560h-560v560z" fill="#0277BD" p-id="48369"></path><path d="M224 224H96v-64a64 64 0 0 1 64-64h64v128z" fill="#039BE5" p-id="48370"></path><path d="M224 232H96a8 8 0 0 1-8-8v-64c0-39.696 32.304-72 72-72h64a8 8 0 0 1 8 8v128a8 8 0 0 1-8 8z m-120-16h112v-112H160c-30.88 0-56 25.12-56 56v56z" fill="#0277BD" p-id="48371"></path><path d="M224 928h-64a64 64 0 0 1-64-64v-64h128v128z" fill="#039BE5" p-id="48372"></path><path d="M224 936h-64A72.08 72.08 0 0 1 88 864v-64a8 8 0 0 1 8-8h128a8 8 0 0 1 8 8v128a8 8 0 0 1-8 8z m-120-128V864c0 30.88 25.12 56 56 56h56v-112h-112z" fill="#0277BD" p-id="48373"></path><path d="M928 224h-128V96h64a64 64 0 0 1 64 64v64z" fill="#039BE5" p-id="48374"></path><path d="M928 232h-128a8 8 0 0 1-8-8V96a8 8 0 0 1 8-8h64c39.696 0 72 32.304 72 72v64a8 8 0 0 1-8 8z m-120-16h112V160c0-30.88-25.12-56-56-56h-56v112z" fill="#0277BD" p-id="48375"></path><path d="M864 928h-64v-128h128v64a64 64 0 0 1-64 64z" fill="#039BE5" p-id="48376"></path><path d="M864 936h-64a8 8 0 0 1-8-8v-128a8 8 0 0 1 8-8h128a8 8 0 0 1 8 8v64c0 39.696-32.304 72-72 72z m-56-16H864c30.88 0 56-25.12 56-56v-56h-112v112z" fill="#0277BD" p-id="48377"></path><path d="M624 688H400v-32a32 32 0 0 1 32-32h160a32 32 0 0 1 32 32v32z" fill="#EC407A" p-id="48378"></path><path d="M624 696H400a8 8 0 0 1-8-8v-32c0-22.064 17.936-40 40-40h160c22.064 0 40 17.936 40 40v32a8 8 0 0 1-8 8z m-216-16h208V656c0-13.232-10.768-24-24-24H432c-13.232 0-24 10.768-24 24v24z" fill="#0277BD" p-id="48379"></path><path d="M576 624h-128l64-224z" fill="#EC407A" p-id="48380"></path><path d="M576 632h-128a7.952 7.952 0 0 1-7.68-10.192l64-224c1.968-6.848 13.408-6.848 15.376 0l64 224A7.952 7.952 0 0 1 576 632z m-117.392-16h106.784L512 429.12 458.608 616z" fill="#0277BD" p-id="48381"></path><path d="M512 400m-64 0a64 64 0 1 0 128 0 64 64 0 1 0-128 0Z" fill="#EC407A" p-id="48382"></path><path d="M512 472c-39.696 0-72-32.304-72-72s32.304-72 72-72 72 32.304 72 72-32.304 72-72 72z m0-128c-30.88 0-56 25.12-56 56s25.12 56 56 56 56-25.12 56-56-25.12-56-56-56z" fill="#0277BD" p-id="48383"></path><path d="M534.624 385.376a8.032 8.032 0 0 1-5.664-2.336 24.048 24.048 0 0 0-33.936 0 8 8 0 0 1-11.312-11.312 40.032 40.032 0 0 1 56.56 0 8 8 0 0 1-5.648 13.648z" fill="#F48FB1" p-id="48384"></path><path d="M96 224h128v192H96z" fill="#FFA726" p-id="48385"></path><path d="M224 424H96a8 8 0 0 1-8-8V224a8 8 0 0 1 8-8h128a8 8 0 0 1 8 8v192a8 8 0 0 1-8 8z m-120-16h112v-176h-112v176z" fill="#0277BD" p-id="48386"></path><path d="M96 416h128v192H96z" fill="#FFA726" p-id="48387"></path><path d="M224 616H96a8 8 0 0 1-8-8V416a8 8 0 0 1 8-8h128a8 8 0 0 1 8 8v192a8 8 0 0 1-8 8z m-120-16h112v-176h-112v176z" fill="#0277BD" p-id="48388"></path><path d="M96 608h128v192H96z" fill="#FFA726" p-id="48389"></path><path d="M224 808H96a8 8 0 0 1-8-8V608a8 8 0 0 1 8-8h128a8 8 0 0 1 8 8v192a8 8 0 0 1-8 8z m-120-16h112v-176h-112v176z" fill="#0277BD" p-id="48390"></path><path d="M800 224h128v192h-128z" fill="#FFA726" p-id="48391"></path><path d="M928 424h-128a8 8 0 0 1-8-8V224a8 8 0 0 1 8-8h128a8 8 0 0 1 8 8v192a8 8 0 0 1-8 8z m-120-16h112v-176h-112v176z" fill="#0277BD" p-id="48392"></path><path d="M800 416h128v192h-128z" fill="#FFA726" p-id="48393"></path><path d="M928 616h-128a8 8 0 0 1-8-8V416a8 8 0 0 1 8-8h128a8 8 0 0 1 8 8v192a8 8 0 0 1-8 8z m-120-16h112v-176h-112v176z" fill="#0277BD" p-id="48394"></path><path d="M800 608h128v192h-128z" fill="#FFA726" p-id="48395"></path><path d="M928 808h-128a8 8 0 0 1-8-8V608a8 8 0 0 1 8-8h128a8 8 0 0 1 8 8v192a8 8 0 0 1-8 8z m-120-16h112v-176h-112v176z" fill="#0277BD" p-id="48396"></path><path d="M800 96v128H608V96zM608 96v128H416V96zM416 96v128H224V96zM800 800v128H608v-128zM608 800v128H416v-128zM416 800v128H224v-128z" fill="#81D4FA" p-id="48397"></path><path d="M864 136H160a8 8 0 0 1 0-16h704a8 8 0 0 1 0 16z" fill="#E1F5FE" p-id="48398"></path><path d="M224 136h-64a8 8 0 0 1 0-16h64a8 8 0 0 1 0 16z" fill="#29B6F6" p-id="48399"></path><path d="M864 136h-64a8 8 0 0 1 0-16h64a8 8 0 0 1 0 16z" fill="#29B6F6" p-id="48400"></path><path d="M864 904H160a8 8 0 0 1 0-16h704a8 8 0 0 1 0 16z" fill="#29B6F6" p-id="48401"></path><path d="M224 904h-64a8 8 0 0 1 0-16h64a8 8 0 0 1 0 16z" fill="#0277BD" p-id="48402"></path><path d="M864 904h-64a8 8 0 0 1 0-16h64a8 8 0 0 1 0 16z" fill="#0277BD" p-id="48403"></path><path d="M800 232H608a8 8 0 0 1-8-8V96a8 8 0 0 1 8-8h192a8 8 0 0 1 8 8v128a8 8 0 0 1-8 8z m-184-16h176v-112h-176v112z" fill="#0277BD" p-id="48404"></path><path d="M608 232H416a8 8 0 0 1-8-8V96a8 8 0 0 1 8-8h192a8 8 0 0 1 8 8v128a8 8 0 0 1-8 8z m-184-16h176v-112h-176v112z" fill="#0277BD" p-id="48405"></path><path d="M416 232H224a8 8 0 0 1-8-8V96a8 8 0 0 1 8-8h192a8 8 0 0 1 8 8v128a8 8 0 0 1-8 8z m-184-16h176v-112h-176v112z" fill="#0277BD" p-id="48406"></path><path d="M768 264H256a8 8 0 0 1 0-16h512a8 8 0 0 1 0 16z" fill="#FFFFFF" p-id="48407"></path><path d="M768 776H256a8 8 0 0 1 0-16h512a8 8 0 0 1 0 16z" fill="#BDBDBD" p-id="48408"></path><path d="M800 936H608a8 8 0 0 1-8-8v-128a8 8 0 0 1 8-8h192a8 8 0 0 1 8 8v128a8 8 0 0 1-8 8z m-184-16h176v-112h-176v112z" fill="#0277BD" p-id="48409"></path><path d="M608 936H416a8 8 0 0 1-8-8v-128a8 8 0 0 1 8-8h192a8 8 0 0 1 8 8v128a8 8 0 0 1-8 8z m-184-16h176v-112h-176v112z" fill="#0277BD" p-id="48410"></path><path d="M416 936H224a8 8 0 0 1-8-8v-128a8 8 0 0 1 8-8h192a8 8 0 0 1 8 8v128a8 8 0 0 1-8 8z m-184-16h176v-112h-176v112z" fill="#0277BD" p-id="48411"></path></svg>