<?xml version="1.0" standalone="no"?><!DOCTYPE svg PUBLIC "-//W3C//DTD SVG 1.1//EN" "http://www.w3.org/Graphics/SVG/1.1/DTD/svg11.dtd"><svg t="1749860176413" class="icon" viewBox="0 0 1226 1024" version="1.1" xmlns="http://www.w3.org/2000/svg" p-id="36927" xmlns:xlink="http://www.w3.org/1999/xlink" width="239.453125" height="200"><path d="M598.339187 476.158768m-476.158768 0a476.158768 476.158768 0 1 0 952.317536 0 476.158768 476.158768 0 1 0-952.317536 0Z" fill="#F6ED5F" p-id="36928"></path><path d="M598.339187 476.158768m-413.097907 0a413.097907 413.097907 0 1 0 826.195814 0 413.097907 413.097907 0 1 0-826.195814 0Z" fill="#F1D239" p-id="36929"></path><path d="M528.627376 579.864325c55.917248 68.233822 28.574453 137.206639-5.419293 172.678374h61.582872c29.313447-132.772673-56.16358-172.678374-56.163579-172.678374z m74.145778-379.596824c179.329324 218.249699 91.635314 438.716382-17.243205 552.275198h196.572529C876.940101 328.606206 602.773154 200.267501 602.773154 200.267501z m4.187635 276.137599c-12.070243 60.843878-60.843878 56.409911-100.99591 62.321867-14.779889 1.970652-29.313447 4.680298-43.600674 8.128939-43.600674 11.57758-61.090209 35.964397-76.855425 38.674043-32.762088 5.419293-48.280972-33.747414-56.163579-55.178253-7.636276-20.938177-5.172961-42.369016 1.231657-49.512629 54.931922-61.336541 274.65961-148.291556 319.738273-165.781092l7.882608-2.955978c-9.85326-22.662497-22.169834-44.339668-36.210729-64.785182l-7.389945 4.187635c-56.16358 31.776762-258.894395 140.65528-314.565311 211.845081-5.419293 11.823911-8.375271 24.633149-8.867934 37.688718-0.738994 13.548232 1.231657 27.096464 5.911956 39.905701 12.316574 33.747414 37.688718 87.447679 87.447678 81.289391 24.140486-2.955978 37.688718-29.559779 87.447679-42.861679 13.055569-3.202309 26.357469-5.911956 39.905701-7.636276 48.280972-6.65095 79.072408-15.026221 95.083955-95.330286z" fill="#EA8113" p-id="36930"></path><path d="M525.425066 592.427231c55.917248 68.233822 28.574453 137.206639-5.419293 172.678374h61.582873c29.559779-132.772673-56.16358-172.678374-56.16358-172.678374zM603.75848 488.968006c-12.070243 60.843878-60.843878 56.409911-100.995911 62.321867-14.779889 1.970652-29.313447 4.680298-43.600673 8.128939-43.600674 11.57758-61.090209 35.964397-76.855425 38.674043-32.762088 5.419293-48.280972-33.747414-56.163579-55.178253-7.636276-20.938177-5.172961-42.369016 1.231657-49.512629 54.931922-61.336541 274.65961-148.291556 319.738273-165.781093l7.882607-2.955977c-9.85326-22.662497-22.169834-44.339668-36.210728-64.785182l-7.389945 4.187635c-56.409911 32.023094-259.140726 140.901612-314.811643 212.091412-5.419293 11.823911-8.375271 24.633149-8.867934 37.688718-0.738994 13.548232 1.231657 27.096464 5.911956 39.905701 12.316574 33.747414 37.688718 87.447679 87.447679 81.289392 24.140486-2.955978 37.688718-29.559779 87.447678-42.861679 13.055569-3.202309 26.357469-5.911956 39.65937-7.636276 48.773635-6.897282 79.565071-15.272552 95.576618-95.576618z" fill="#EDB91E" p-id="36931"></path><path d="M599.570844 212.830407c179.329324 218.249699 91.635314 438.716382-17.243204 552.275198h196.572528c94.837623-424.182824-179.329324-552.275198-179.329324-552.275198z" fill="#EDB91E" p-id="36932"></path><path d="M202.730815 563.113784c0-265.545345 215.293721-481.085398 481.085399-481.085398 15.026221 0 29.80611 0.738994 44.339668 1.970652-216.77171-71.436132-450.540293 46.31032-521.976426 262.835699-27.096464 82.028386-27.835458 170.215059-1.970652 252.736107-0.985326-12.070243-1.477989-24.140486-1.477989-36.45706z" fill="#E3B117" p-id="36933"></path><path d="M251.011787 221.205677c35.471734-8.867934 57.641568-31.037768 66.509502-66.509502 8.867934 35.471734 31.037768 57.641568 66.509502 66.509502-35.471734 8.867934-57.641568 31.037768-66.509502 66.509502-8.867934-35.471734-31.037768-57.641568-66.509502-66.509502z" fill="#F5D44B" p-id="36934"></path><path d="M245.838826 215.540053c35.471734-8.867934 57.641568-31.037768 66.509502-66.509502 8.867934 35.471734 31.037768 57.641568 66.509502 66.509502-35.718066 8.867934-57.8879 31.037768-66.755833 66.509502-8.621602-35.471734-30.791436-57.641568-66.263171-66.509502z" fill="#FFFFFE" p-id="36935"></path><path d="M840.236709 177.358672c58.380563-14.533558 94.837623-50.990618 109.371181-109.371181 14.533558 58.380563 50.990618 94.837623 109.371181 109.371181-58.380563 14.533558-94.837623 50.990618-109.371181 109.371181-14.533558-58.380563-50.990618-94.837623-109.371181-109.371181z" fill="#F5D44B" p-id="36936"></path><path d="M831.368776 167.998076c58.380563-14.533558 94.837623-50.990618 109.371181-109.371182 14.533558 58.380563 50.990618 94.837623 109.371181 109.371182-58.380563 14.533558-94.837623 50.990618-109.371181 109.371181-14.533558-58.134231-50.990618-94.591292-109.371181-109.371181z" fill="#FFFFFE" p-id="36937"></path><path d="M129.324032 311.855665c-18.721193 54.685591-59.119557 93.113303-90.649988 85.96969-31.530431-7.143613-41.876353-57.395237-23.15516-112.080828s59.119557-93.113303 90.649988-85.969689 41.630022 57.395237 23.15516 112.080827z" fill="#F1D239" p-id="36938"></path><path d="M123.165745 308.899687c-18.721193 54.685591-59.119557 93.113303-90.649988 85.96969-31.530431-7.143613-41.876353-57.641568-23.15516-112.327159s59.119557-93.113303 90.649988-85.723358 41.630022 57.395237 23.15516 112.080827z" fill="#F6ED5F" p-id="36939"></path><path d="M120.456098 289.4395c-1.231657 5.911956-2.955978 11.823911-4.92663 17.489535-16.011547 47.541977-51.23695 80.796728-78.579745 74.39211S0.738994 331.562184 16.750541 284.020207s51.23695-80.796728 78.579745-74.39211c23.894154 5.665624 33.747414 39.65937 25.125812 79.811403" fill="#F1D239" p-id="36940"></path><path d="M50.497955 315.304306c1.231657 13.3019-3.448641 26.357469-12.809237 35.718066l7.389944 1.72432c12.809237-26.850132 5.419293-37.442386 5.419293-37.442386zM86.216021 238.448881c5.911956 50.251624-19.952851 93.852297-41.137359 114.297811l23.401492 5.419293C109.863844 272.688958 86.216021 238.20255 86.216021 238.448881z m-18.967524 57.395237c-5.665624 12.316574-11.331248 10.099591-16.50421 10.099591-1.970652 0-3.941304 0.246331-5.911956 0.492663-6.158287 1.231657-9.85326 5.911956-12.070243 5.911956-4.187635 0.246331-3.448641-8.375271-2.709646-13.055569 0.246331-3.694972 1.477989-7.143613 3.694972-10.345922 10.838586-11.331248 43.354342-23.15516 50.005292-25.618475l1.231658-0.492663c0.492663-4.92663 0.492663-9.606928 0.246331-14.533558l-1.231657 0.738994c-8.867934 5.172961-40.891027 22.169834-52.714939 35.471735-1.477989 2.463315-2.709646 4.92663-3.694972 7.636276-0.985326 2.709646-1.72432 5.665624-2.216984 8.375271-0.985326 7.389945-1.72432 19.213856 4.680299 19.213856 3.202309 0 6.65095-5.172961 13.548232-6.404619 1.72432-0.246331 3.448641-0.492663 5.172961-0.492663 6.65095 0.246331 10.838586-0.738994 18.474862-16.996873z" fill="#EA8113" p-id="36941"></path><path d="M49.266298 317.767621c1.231657 13.3019-3.448641 26.357469-12.809238 35.718066l7.389945 1.72432C56.656242 328.359875 49.266298 317.767621 49.266298 317.767621zM66.016839 298.307433c-5.665624 12.316574-11.331248 10.099591-16.50421 10.099591-1.970652 0-3.941304 0.246331-5.911955 0.492663-6.158287 1.231657-9.85326 5.911956-12.070243 5.911956-4.187635 0.246331-3.448641-8.375271-2.709647-13.055569 0.246331-3.694972 1.477989-7.143613 3.694973-10.345922 10.838586-11.331248 43.354342-23.15516 50.005292-25.618475l1.231657-0.492663c0.492663-4.92663 0.492663-9.606928 0.246332-14.533558l-1.231658 0.738994c-8.867934 5.172961-40.891027 22.169834-52.714938 35.471735-1.477989 2.463315-2.709646 4.92663-3.694973 7.636276-0.985326 2.709646-1.72432 5.665624-2.216983 8.375271-0.985326 7.389945-1.72432 19.213856 4.680298 19.213856 3.202309 0 6.65095-5.172961 13.548232-6.404619 1.72432-0.246331 3.448641-0.492663 5.172961-0.492663 6.404619 0.246331 10.838586-0.738994 18.474862-16.996873z" fill="#EDB91E" p-id="36942"></path><path d="M84.984364 240.912196c5.911956 50.251624-19.952851 93.852297-41.137359 114.297811l23.401492 5.419293c41.38369-85.477027 17.735867-119.717104 17.735867-119.717104z" fill="#EDB91E" p-id="36943"></path><path d="M12.809237 302.7414c18.721193-55.178254 59.858552-94.098629 91.635314-86.708684 1.72432 0.492663 3.448641 0.985326 5.172962 1.72432-3.941304-3.941304-8.621602-6.65095-14.040895-7.882607-27.342795-6.404619-62.568198 27.096464-78.579745 74.392109-2.955978 8.621602-5.172961 17.243204-6.404619 26.111138 0.492663-2.463315 1.231657-5.172961 2.216983-7.636276z" fill="#E3B117" p-id="36944"></path><path d="M1105.289391 170.954053c42.861679 29.067116 92.62064 34.979071 111.341833 12.809238s-0.985326-63.799856-43.847005-92.866972-92.62064-34.979071-111.341833-12.809237 0.985326 63.799856 43.847005 92.866971z" fill="#F1D239" p-id="36945"></path><path d="M1108.245369 165.534761c42.861679 29.067116 92.62064 34.979071 111.341833 12.809237s-0.985326-63.799856-43.847005-93.113303-92.62064-34.979071-111.341833-12.809237 0.985326 63.799856 43.847005 93.113303z" fill="#F6ED5F" p-id="36946"></path><path d="M1099.623767 150.262208c4.187635 3.448641 8.375271 6.897282 13.055569 9.85326 37.196055 25.372143 80.304065 30.298773 96.561944 11.084917s-0.985326-55.424585-37.93505-80.550397-80.304065-30.298773-96.561943-11.084917c-14.287226 16.750541-2.955978 46.556651 24.87948 70.697137" fill="#F1D239" p-id="36947"></path><path d="M1187.81044 154.696175l4.433967-5.172961c-11.823911-1.72432-22.169834-8.621602-28.574453-18.721193 0 0.246331 0.492663 11.823911 24.140486 23.894154z m-14.040895 16.750541l14.040895-16.750541c-26.111138-3.448641-68.233822-20.445514-91.142651-59.858552 0 0.246331 1.477989 37.688718 77.101756 76.609093z m-10.099591-42.861679c1.231657-0.985326 2.709646-1.72432 3.941304-2.463315 5.665624-2.709646 11.084917-0.985326 13.055569-2.709646 4.433967-3.448641-2.463315-11.57758-7.143613-16.50421-1.72432-1.970652-3.941304-3.448641-6.158287-4.92663-2.216983-1.477989-4.433967-2.463315-6.897282-3.44864-15.518884-3.202309-47.541977 1.72432-56.902574 2.955977l-1.231657 0.246332c2.463315 3.694972 5.172961 6.897282 7.882607 10.345923l0.985326-0.246332c5.911956-1.970652 35.718066-10.592254 49.512629-8.621602 3.202309 0.985326 5.911956 2.955978 8.12894 5.419293 2.955978 2.955978 8.128939 8.621602 4.926629 10.838585-1.477989 0.985326-6.897282-0.246331-11.823911 2.216984-1.477989 0.738994-2.955978 1.72432-4.433967 2.709646-3.694972 2.709646-6.404619 7.389945-17.243204 1.477989 15.272552 7.882608 18.721193 6.158287 23.401491 2.709646z" fill="#EA8113" p-id="36948"></path><path d="M1165.886938 132.033678c6.158287 10.099591 16.750541 16.996873 28.574452 18.721193l-4.433966 5.172962c-23.647823-12.070243-24.140486-23.894154-24.140486-23.894155zM1143.470772 127.35338c10.838586 5.665624 13.548232 1.231657 17.243204-1.477989l4.433967-2.955978c4.92663-2.463315 10.099591-1.231657 11.823912-2.216983 3.202309-2.216983-1.970652-7.882608-4.92663-10.838586-2.216983-2.463315-4.92663-4.187635-8.128939-5.419293-13.794563-2.216983-43.600674 6.65095-49.51263 8.621602l-0.985325 0.246332c-2.955978-3.202309-5.665624-6.65095-8.12894-10.099591l1.231658-0.246332c9.114265-1.231657 41.38369-6.158287 56.902574-2.955977 2.463315 0.985326 4.680298 1.970652 6.897281 3.44864 2.216983 1.477989 4.187635 2.955978 6.158288 4.92663 4.680298 4.680298 11.57758 12.809237 7.143613 16.50421-2.216983 1.72432-7.389945 0-13.055569 2.709646-1.477989 0.738994-2.709646 1.477989-3.941304 2.463315-5.419293 2.955978-8.867934 4.680298-23.15516-2.709646z" fill="#EDB91E" p-id="36949"></path><path d="M1098.884773 96.315612c22.908828 39.413038 65.031513 56.409911 91.142651 59.858552l-13.794564 16.50421c-75.870099-39.166707-77.348088-76.362762-77.348087-76.362762z" fill="#EDB91E" p-id="36950"></path><path d="M1184.115468 101.734905c-43.354342-29.559779-93.605966-35.225403-112.327159-12.809237-0.985326 1.231657-1.970652 2.463315-2.709647 3.941303 0.738994-4.92663 2.709646-9.360597 5.911956-13.3019 16.257878-19.213856 59.365889-14.287226 96.561944 11.084917 6.65095 4.433967 13.055569 9.606928 18.721193 15.272552-2.216983-1.477989-4.187635-2.955978-6.158287-4.187635z" fill="#E3B117" p-id="36951"></path><path d="M225.393312 793.187395c-10.592254 24.140486-52.468607 38.427712-94.098628 31.53043s-66.509502-32.269425-55.917248-56.656242S128.092374 729.633871 169.476064 736.531152s66.509502 32.515757 55.917248 56.656243z" fill="#F1D239" p-id="36952"></path><path d="M225.393312 789.738754c-10.592254 24.386817-52.468607 38.427712-94.098628 31.530431s-66.509502-32.269425-55.917248-56.656243 52.714939-38.181381 94.098628-31.284099 66.509502 32.023094 55.917248 56.409911z" fill="#F6ED5F" p-id="36953"></path><path d="M215.540053 788.014433c-9.114265 21.184508-45.571325 33.254751-81.535723 27.342796S76.362762 787.275439 85.477027 766.337262s45.571325-33.254751 81.535723-27.342795 57.641568 27.835458 48.527303 49.019966z" fill="#F1D239" p-id="36954"></path><path d="M135.235987 784.812124c6.158287 7.882608-0.985326 13.548232-7.882607 15.765215l9.606928 1.724321c10.099591-11.57758-1.72432-17.489536-1.724321-17.489536z m26.850133-33.008419c19.460188 24.87948-3.202309 42.861679-24.879481 50.497955l31.037768 5.172961c32.023094-36.703392-6.158287-55.670917-6.158287-55.670916z m-10.345923 25.618474c-4.433967 5.172961-11.823911 3.694972-18.474861 3.20231-1.970652-0.246331-4.433967-0.246331-7.143614-0.246332-7.389945 0-11.084917 1.72432-13.548232 1.477989-3.694972 0-6.404619-2.955978-6.65095-6.65095-0.246331-1.72432 0.492663-3.694972 2.216984-4.433967 11.084917-4.187635 49.266298-6.404619 56.902574-6.897281h1.477989c-0.738994-2.463315-1.72432-4.680298-3.20231-6.897282l-1.231657 0.246331c-10.099591 1.477989-46.31032 6.158287-58.134232 11.331249-1.231657 0.738994-2.216983 1.970652-2.955977 3.202309-0.738994 1.231657-0.985326 2.463315-0.738995 3.941304 0.492663 5.419293 4.92663 9.85326 10.592254 9.85326 3.941304 0.246331 7.143613-1.72432 15.518884-1.724321 2.463315 0 4.680298 0.246331 6.65095 0.246332 7.882608 0.246331 13.055569 0.246331 18.721193-6.650951z" fill="#EA8113" p-id="36955"></path><path d="M134.250662 786.043782c6.158287 7.882608-0.985326 13.548232-7.882608 15.765215l9.606928 1.72432c10.099591-11.57758-1.72432-17.489536-1.72432-17.489535zM150.754871 778.407505c-4.433967 5.172961-11.823911 3.694972-18.474861 3.20231-1.970652-0.246331-4.433967-0.246331-7.143614-0.246332-7.389945 0-11.084917 1.72432-13.548231 1.477989-3.694972 0-6.404619-2.955978-6.650951-6.65095-0.246331-1.72432 0.492663-3.694972 2.216984-4.433967 11.084917-4.187635 49.266298-6.404619 56.902574-6.897281h1.477989c-0.738994-2.463315-1.72432-4.680298-3.20231-6.897282l-1.231657 0.246331c-10.099591 1.477989-46.31032 6.158287-58.134232 11.331249-1.231657 0.738994-2.216983 1.970652-2.955977 3.202309-0.738994 1.231657-0.985326 2.463315-0.738995 3.941304 0.492663 5.419293 4.92663 9.85326 10.592254 9.85326 3.941304 0.246331 7.143613-1.72432 15.518884-1.724321 2.463315 0 4.680298 0.246331 6.65095 0.246332 7.882608 0.492663 13.055569 0.492663 18.721193-6.650951z" fill="#EDB91E" p-id="36956"></path><path d="M161.100794 752.789031c19.460188 24.87948-3.202309 42.861679-24.879481 50.497955l31.037768 5.172961c32.023094-36.703392-6.158287-55.670917-6.158287-55.670916z" fill="#EDB91E" p-id="36957"></path><path d="M84.738032 774.712533c10.592254-24.633149 53.207602-38.920375 95.083955-31.776762 2.463315 0.492663 4.680298 0.738994 6.897282 1.231657-6.404619-2.463315-13.055569-4.187635-19.706519-5.419292-35.964397-5.911956-72.421458 6.158287-81.535723 27.342795-1.477989 3.694972-2.216983 7.636276-1.970652 11.823911 0.246331-0.985326 0.738994-2.216983 1.231657-3.202309z" fill="#E3B117" p-id="36958"></path><path d="M496.850613 929.408708c-16.50421 37.935049-82.028386 59.858552-146.567236 49.019967s-103.459225-50.251624-86.955015-88.186674 82.028386-59.858552 146.567236-49.019966 103.459225 50.497955 86.955015 88.186673z" fill="#F1D239" p-id="36959"></path><path d="M496.850613 923.989415c-16.50421 37.935049-82.028386 59.858552-146.567236 49.019967s-103.459225-50.251624-86.955015-88.186673 82.028386-59.858552 146.567236-49.019967 103.459225 50.251624 86.955015 88.186673z" fill="#F6ED5F" p-id="36960"></path><path d="M481.33173 921.279769c-14.287226 32.762088-71.1898 51.975944-127.107049 42.615348s-89.664662-43.600674-75.623767-76.362762 71.1898-51.975944 127.107048-42.615348 89.910994 43.354342 75.623768 76.362762z" fill="#F1D239" p-id="36961"></path><path d="M356.441665 916.353139c9.606928 12.070243-1.477989 20.938177-12.070243 24.633149l15.026221 2.463315c15.518884-17.735867-2.955978-27.096464-2.955978-27.096464z m41.876353-51.729612c30.298773 38.920375-4.92663 67.002165-38.674044 78.826076l48.280972 8.128939c49.758961-57.148905-9.606928-86.955016-9.606928-86.955015z m-16.011547 40.152032c-6.897282 8.375271-18.474862 5.665624-28.574453 4.92663-3.202309-0.246331-6.897282-0.492663-11.331248-0.492663-11.331248 0-17.243204 2.709646-21.43084 2.463315-8.375271-0.492663-9.85326-6.897282-10.345922-10.345923-0.492663-2.955978 0.738994-5.665624 3.448641-7.143613 17.243204-6.65095 76.609093-10.099591 88.679336-10.838585h2.216983c-1.231657-3.941304-2.709646-7.389945-4.92663-10.838586l-1.970652 0.246332c-15.765215 2.216983-72.421458 9.606928-90.403656 17.735867-1.970652 1.231657-3.448641 2.955978-4.433967 4.92663-0.985326 1.72432-1.477989 3.941304-0.985326 5.911955 0.985326 5.419293 3.694972 14.040895 16.257878 15.272553 6.158287 0.492663 11.084917-2.709646 24.140486-2.463315 3.694972 0 7.143613 0.246331 10.345923 0.492663 12.070243 0.985326 20.199182 0.985326 29.313447-9.85326z" fill="#EA8113" p-id="36962"></path><path d="M354.963676 918.07746c9.606928 12.070243-1.477989 20.938177-12.070243 24.633149l15.026221 2.463315c15.518884-17.735867-2.955978-27.096464-2.955978-27.096464zM380.582151 906.49988c-6.897282 8.375271-18.474862 5.665624-28.574453 4.92663-3.202309-0.246331-6.897282-0.492663-11.331249-0.492663-11.331248 0-17.243204 2.709646-21.430839 2.463314-8.375271-0.492663-9.85326-6.897282-10.345923-10.345922-0.492663-2.955978 0.738994-5.665624 3.448641-7.143613 17.243204-6.65095 76.609093-10.099591 88.679336-10.838586h2.216984c-1.231657-3.941304-2.709646-7.389945-4.92663-10.838585l-1.970652 0.246331c-15.765215 2.216983-72.421458 9.606928-90.403657 17.735867-1.970652 1.231657-3.448641 2.955978-4.433966 4.92663-0.985326 1.72432-1.477989 3.941304-0.985326 5.911956 0.985326 5.419293 3.694972 14.040895 16.257878 15.272552 6.158287 0.492663 11.084917-2.709646 24.140486-2.463315 3.694972 0 7.143613 0.246331 10.345922 0.492663 12.316574 0.985326 20.445514 0.985326 29.313448-9.853259z" fill="#EDB91E" p-id="36963"></path><path d="M396.840029 866.347847c30.298773 38.920375-4.92663 67.002165-38.674044 78.826077L406.446957 953.302863c49.758961-57.148905-9.606928-86.955016-9.606928-86.955016z" fill="#EDB91E" p-id="36964"></path><path d="M277.615588 900.587924c16.50421-38.181381 83.013712-60.597546 148.045225-49.512629 3.694972 0.492663 7.143613 1.231657 10.838586 2.216983-9.85326-3.941304-20.199182-6.65095-30.545105-8.375271-55.917248-9.360597-112.819822 9.606928-127.107048 42.615348-2.709646 5.911956-3.694972 12.316574-3.20231 18.474862 0.492663-1.970652 1.231657-3.694972 1.970652-5.419293z" fill="#E3B117" p-id="36965"></path><path d="M530.598027 918.323791c-16.50421 37.935049-82.028386 59.858552-146.567236 49.019967s-103.459225-50.251624-86.955015-88.186674 82.028386-59.858552 146.567236-49.019966 103.705557 50.251624 86.955015 88.186673z" fill="#F1D239" p-id="36966"></path><path d="M530.598027 912.658167c-16.50421 37.935049-82.028386 59.858552-146.567236 49.019966s-103.459225-50.251624-86.955015-88.186673 82.028386-59.858552 146.567236-49.019966 103.705557 50.251624 86.955015 88.186673z" fill="#F6ED5F" p-id="36967"></path><path d="M515.325475 909.948521c-14.287226 32.762088-71.1898 51.975944-127.107048 42.615347s-89.664662-43.600674-75.623767-76.362761 71.1898-51.975944 127.107048-42.615348 89.664662 43.600674 75.623767 76.362762z" fill="#F1D239" p-id="36968"></path><path d="M390.189079 905.021891c9.606928 12.070243-1.477989 20.938177-12.070243 24.633149l15.026221 2.463315c15.518884-17.735867-2.955978-27.096464-2.955978-27.096464z m41.876353-51.729613c30.298773 38.920375-4.92663 67.002165-38.674044 78.826077l48.280972 8.128939c49.758961-57.148905-9.606928-86.708684-9.606928-86.955016z m-16.257878 40.152033c-6.897282 8.375271-18.474862 5.665624-28.574453 4.92663-3.202309-0.246331-6.897282-0.492663-11.331249-0.492663-11.331248 0-17.243204 2.709646-21.430839 2.463314-8.375271-0.492663-9.85326-6.897282-10.345923-10.345922-0.492663-2.955978 0.738994-5.665624 3.448641-7.143613 17.243204-6.65095 76.609093-10.099591 88.679336-10.838586h2.216984c-1.231657-3.941304-2.709646-7.389945-4.92663-10.838585l-1.970652 0.246331c-15.765215 2.216983-72.421458 9.606928-90.403657 17.735867-1.970652 1.231657-3.448641 2.955978-4.433966 4.92663-0.985326 1.72432-1.477989 3.941304-0.985326 5.911956 0.985326 5.419293 3.694972 14.040895 16.257878 15.272552 6.158287 0.492663 11.084917-2.709646 24.140486-2.463315 3.694972 0 7.143613 0.246331 10.345922 0.492663 12.316574 0.985326 20.445514 0.985326 29.313448-9.853259z" fill="#EA8113" p-id="36969"></path><path d="M388.71109 906.746211c9.606928 12.070243-1.477989 20.938177-12.070243 24.633149l15.026221 2.463315c15.518884-17.735867-2.955978-27.096464-2.955978-27.096464zM414.329565 895.168631c-6.897282 8.375271-18.474862 5.665624-28.574453 4.92663-3.202309-0.246331-6.897282-0.492663-11.331249-0.492663-11.331248 0-17.243204 2.709646-21.430839 2.463315-8.375271-0.492663-9.85326-6.897282-10.345923-10.345923-0.492663-2.955978 0.738994-5.665624 3.448641-7.143613 17.243204-6.65095 76.609093-10.099591 88.679336-10.838585h2.216984c-1.231657-3.941304-2.709646-7.389945-4.92663-10.838586l-1.970652 0.246332c-15.765215 2.216983-72.421458 9.606928-90.403657 17.735867-1.970652 1.231657-3.448641 2.955978-4.433966 4.92663-0.985326 1.72432-1.477989 3.941304-0.985326 5.911955 0.985326 5.419293 3.694972 14.040895 16.257878 15.272553 6.158287 0.492663 11.084917-2.709646 24.140486-2.463315 3.694972 0 7.143613 0.246331 10.345922 0.492663 12.316574 0.985326 20.445514 1.231657 29.313448-9.85326z" fill="#EDB91E" p-id="36970"></path><path d="M430.587443 855.016599c30.298773 38.920375-4.92663 67.002165-38.674044 78.826076l48.280972 8.128939c49.758961-57.148905-9.606928-86.955016-9.606928-86.955015z" fill="#EDB91E" p-id="36971"></path><path d="M311.363002 889.256675c16.50421-38.181381 83.013712-60.597546 148.045225-49.512629 3.694972 0.492663 7.389945 1.231657 10.838586 2.216984-9.85326-3.941304-20.199182-6.65095-30.545105-8.375271-55.917248-9.360597-112.819822 9.606928-127.107048 42.615348-2.709646 5.911956-3.694972 12.316574-3.20231 18.474861 0.492663-1.72432 1.231657-3.694972 1.970652-5.419293z" fill="#E3B117" p-id="36972"></path><path d="M690.467164 971.531393c-16.50421 37.935049-82.028386 59.858552-146.567236 49.019966s-103.459225-50.251624-87.201347-88.186673 82.028386-59.858552 146.567236-49.019966 103.705557 50.251624 87.201347 88.186673z" fill="#F1D239" p-id="36973"></path><path d="M690.467164 965.865769c-16.50421 37.935049-82.028386 59.858552-146.567236 49.019966s-103.459225-50.251624-87.201347-88.186673 82.028386-59.858552 146.567236-49.019966 103.705557 50.251624 87.201347 88.186673z" fill="#F6ED5F" p-id="36974"></path><path d="M674.94828 963.402454c-14.287226 32.762088-71.1898 51.975944-127.107048 42.615347s-89.664662-43.600674-75.623767-76.362761 71.1898-51.975944 127.107048-42.615348 89.910994 43.354342 75.623767 76.362762z" fill="#F1D239" p-id="36975"></path><path d="M550.058215 958.475824c9.606928 12.070243-1.477989 20.938177-12.070243 24.633149l15.026221 2.463315c15.518884-17.735867-2.955978-27.096464-2.955978-27.096464z m41.876353-51.729613c30.298773 38.920375-4.92663 67.002165-38.674044 78.826077l48.280972 8.128939c49.758961-57.148905-9.606928-86.955016-9.606928-86.955016z m-16.257878 39.905701c-6.897282 8.375271-18.474862 5.665624-28.574453 4.92663-3.202309-0.246331-6.897282-0.492663-11.331248-0.492663-11.331248 0-17.243204 2.709646-21.43084 2.463315-8.375271-0.492663-9.85326-6.897282-10.345922-10.345922-0.492663-2.955978 0.738994-5.665624 3.44864-7.143614 17.243204-6.65095 76.609093-10.099591 88.679337-10.838585h2.216983c-1.231657-3.941304-2.709646-7.389945-4.92663-10.838586l-1.970652 0.246332c-15.765215 2.216983-72.421458 9.606928-90.403656 17.735867-1.970652 1.231657-3.448641 2.955978-4.433967 4.92663-0.985326 1.72432-1.477989 3.941304-0.985326 5.911956 0.985326 5.419293 3.694972 14.040895 16.257878 15.272552 6.158287 0.492663 11.084917-2.709646 24.140486-2.463315 3.694972 0 7.143613 0.246331 10.345923 0.492663 12.316574 1.231657 20.445514 1.231657 29.313447-9.85326z" fill="#EA8113" p-id="36976"></path><path d="M548.333895 960.200144c9.606928 12.070243-1.477989 20.938177-12.070243 24.633149l15.026221 2.463315c15.765215-17.982199-2.955978-27.096464-2.955978-27.096464zM574.198701 948.376233c-6.897282 8.375271-18.474862 5.665624-28.574453 4.92663-3.202309-0.246331-6.897282-0.492663-11.331248-0.492663-11.331248 0-17.243204 2.709646-21.43084 2.463315-8.375271-0.492663-9.85326-6.897282-10.345922-10.345923-0.492663-2.955978 0.738994-5.665624 3.448641-7.143613 17.243204-6.65095 76.609093-10.099591 88.679336-10.838586h2.216983c-1.231657-3.941304-2.709646-7.389945-4.92663-10.838585l-1.970652 0.246331c-15.765215 2.216983-72.421458 9.606928-90.403656 17.735867-1.970652 1.231657-3.448641 2.955978-4.433967 4.92663-0.985326 1.72432-1.477989 3.941304-0.985326 5.911956 0.985326 5.419293 3.694972 14.040895 16.257878 15.272552 6.158287 0.492663 11.084917-2.709646 24.140486-2.463315 3.694972 0 7.143613 0.246331 10.345923 0.492663 12.316574 0.985326 20.199182 0.985326 29.313447-9.853259z" fill="#EDB91E" p-id="36977"></path><path d="M590.456579 908.470532c30.298773 38.920375-4.92663 67.002165-38.674044 78.826076l48.280972 8.128939c49.512629-57.148905-9.606928-86.955016-9.606928-86.955015z" fill="#EDB91E" p-id="36978"></path><path d="M470.985807 942.710609c16.50421-38.181381 83.013712-60.597546 148.045225-49.51263 3.694972 0.492663 7.143613 1.231657 10.838586 2.216984-9.85326-3.941304-20.199182-6.65095-30.545105-8.375271-55.917248-9.360597-112.819822 9.606928-127.107048 42.615348-2.709646 5.911956-3.694972 12.316574-3.20231 18.474861 0.738994-1.970652 1.231657-3.694972 1.970652-5.419292z" fill="#E3B117" p-id="36979"></path><path d="M738.255473 947.637238c-16.50421 37.935049-82.028386 59.858552-146.567236 49.019967s-103.459225-50.251624-87.201347-88.186673 82.028386-59.858552 146.567236-49.019967 103.705557 50.251624 87.201347 88.186673z" fill="#F1D239" p-id="36980"></path><path d="M738.255473 941.971614c-16.50421 37.935049-82.028386 59.858552-146.567236 49.019966s-103.459225-50.251624-87.201347-88.186673 82.028386-59.858552 146.567236-49.019966 103.705557 50.251624 87.201347 88.186673z" fill="#F6ED5F" p-id="36981"></path><path d="M722.736589 939.508299c-14.287226 32.762088-71.1898 51.975944-127.107048 42.615348s-89.664662-43.600674-75.623768-76.362762 71.1898-51.975944 127.107049-42.615347 89.910994 43.354342 75.623767 76.362761z" fill="#F1D239" p-id="36982"></path><path d="M597.600192 934.581669c9.606928 12.070243-1.477989 20.938177-12.070243 24.633149l15.026221 2.463315c15.765215-17.735867-2.955978-27.096464-2.955978-27.096464z m41.876354-51.729612c30.298773 38.920375-4.92663 67.002165-38.674044 78.826076l48.280972 8.128939c49.758961-57.148905-9.360597-86.955016-9.606928-86.955015z m-16.257879 39.905701c-6.897282 8.375271-18.474862 5.665624-28.574452 4.92663-3.202309-0.246331-6.897282-0.492663-11.331249-0.492663-11.331248 0-17.243204 2.709646-21.430839 2.463315-8.375271-0.492663-9.85326-6.897282-10.345923-10.345923-0.492663-2.955978 0.738994-5.665624 3.448641-7.143613 17.243204-6.65095 76.609093-10.099591 88.679336-10.838586h2.216983c-1.231657-3.941304-2.709646-7.389945-4.926629-10.838585l-1.970652 0.246331c-15.765215 2.216983-72.421458 9.606928-90.403657 17.735868-1.970652 1.231657-3.448641 2.955978-4.433967 4.926629-0.985326 1.72432-1.477989 3.941304-0.985326 5.911956 0.985326 5.419293 3.694972 14.040895 16.257879 15.272552 6.158287 0.492663 11.084917-2.709646 24.140486-2.463314 3.694972 0 7.143613 0.246331 10.345922 0.492663 12.562906 1.231657 20.445514 1.231657 29.313447-9.85326z" fill="#EA8113" p-id="36983"></path><path d="M596.122204 936.30599c9.606928 12.070243-1.477989 20.938177-12.070243 24.633149l15.02622 2.463315c15.518884-17.735867-2.955978-27.096464-2.955977-27.096464zM621.740678 924.482078c-6.897282 8.375271-18.474862 5.665624-28.574452 4.92663-3.202309-0.246331-6.897282-0.492663-11.331249-0.492663-11.331248 0-17.243204 2.709646-21.430839 2.463315-8.375271-0.492663-9.85326-6.897282-10.345923-10.345922-0.492663-2.955978 0.738994-5.665624 3.448641-7.143614 17.243204-6.65095 76.609093-10.099591 88.679336-10.838585h2.216983c-1.231657-3.941304-2.709646-7.389945-4.926629-10.838586l-1.970652 0.246332c-15.765215 2.216983-72.421458 9.606928-90.403657 17.735867-1.970652 1.231657-3.448641 2.955978-4.433967 4.92663-0.985326 1.72432-1.477989 3.941304-0.985326 5.911956 0.985326 5.419293 3.694972 14.040895 16.257879 15.272552 6.158287 0.492663 11.084917-2.709646 24.140486-2.463315 3.694972 0 7.143613 0.246331 10.345922 0.492663 12.316574 0.985326 20.445514 1.231657 29.313447-9.85326z" fill="#EDB91E" p-id="36984"></path><path d="M637.998557 884.576377c30.298773 38.920375-4.92663 67.002165-38.674044 78.826077l48.280972 8.128939c49.758961-57.148905-9.606928-86.955016-9.606928-86.955016z" fill="#EDB91E" p-id="36985"></path><path d="M518.774116 918.816454c16.50421-38.181381 83.013712-60.597546 148.045225-49.512629 3.694972 0.492663 7.143613 1.231657 10.838585 2.216983-9.85326-3.941304-20.199182-6.65095-30.545104-8.37527-55.917248-9.360597-112.819822 9.606928-127.107049 42.615347-2.709646 5.911956-3.694972 12.316574-3.202309 18.474862 0.492663-1.970652 1.231657-3.694972 1.970652-5.419293z" fill="#E3B117" p-id="36986"></path><path d="M762.888622 897.385615c-16.50421 37.935049-82.028386 59.858552-146.567236 49.019966s-103.459225-50.251624-87.201348-88.186673 82.028386-59.858552 146.567236-49.019966 103.705557 50.251624 87.201348 88.186673z" fill="#F1D239" p-id="36987"></path><path d="M762.888622 891.71999c-16.50421 37.935049-82.028386 59.858552-146.567236 49.019967s-103.459225-50.251624-87.201348-88.186673 82.028386-59.858552 146.567236-49.019967 103.705557 50.251624 87.201348 88.186673z" fill="#F6ED5F" p-id="36988"></path><path d="M747.369738 889.256675c-14.287226 32.762088-71.1898 51.975944-127.107049 42.615348s-89.664662-43.600674-75.623767-76.362762 71.1898-51.975944 127.107049-42.615347 89.910994 43.354342 75.623767 76.362761z" fill="#F1D239" p-id="36989"></path><path d="M622.479673 884.330046c9.360597 12.070243-1.477989 20.938177-12.070243 24.633149l15.026221 2.463315c15.518884-17.982199-2.955978-27.096464-2.955978-27.096464z m41.876353-51.729613c30.298773 38.920375-4.92663 67.002165-38.674044 78.826077l48.280972 8.128939c49.758961-57.148905-9.606928-86.955016-9.606928-86.955016z m-16.011547 39.905701c-6.897282 8.375271-18.474862 5.665624-28.574453 4.92663-3.202309-0.246331-6.897282-0.492663-11.331248-0.492663-11.331248 0-17.243204 2.709646-21.43084 2.463315-8.375271-0.492663-9.85326-6.897282-10.345922-10.345923-0.492663-2.955978 0.738994-5.665624 3.448641-7.143613 17.243204-6.65095 76.609093-10.099591 88.679336-10.838585h2.216983c-1.231657-3.941304-2.709646-7.389945-4.92663-10.838586l-1.970652 0.246332c-15.765215 2.216983-72.421458 9.606928-90.403656 17.735867-1.970652 1.231657-3.448641 2.955978-4.433967 4.92663-0.985326 1.72432-1.477989 3.941304-0.985326 5.911955 0.985326 5.419293 3.694972 14.040895 16.257879 15.272553 6.158287 0.492663 11.084917-2.709646 24.140485-2.463315 3.694972 0 7.143613 0.246331 10.345923 0.492663 12.070243 0.985326 20.199182 0.985326 29.313447-9.85326z" fill="#EA8113" p-id="36990"></path><path d="M621.001684 885.808035c9.606928 12.070243-1.477989 20.938177-12.070243 24.633149l15.026221 2.463314c15.518884-17.735867-2.955978-27.096464-2.955978-27.096463zM646.620159 874.230455c-6.897282 8.375271-18.474862 5.665624-28.574453 4.926629-3.202309-0.246331-6.897282-0.492663-11.331248-0.492663-11.331248 0-17.243204 2.709646-21.43084 2.463315-8.375271-0.492663-9.85326-6.897282-10.345923-10.345922-0.492663-2.955978 0.738994-5.665624 3.448641-7.143613 17.243204-6.65095 76.609093-10.099591 88.679336-10.838586h2.216984c-1.231657-3.941304-2.709646-7.389945-4.92663-10.838585l-1.970652 0.246331c-15.765215 2.216983-72.421458 9.606928-90.403656 17.735867-1.970652 1.231657-3.448641 2.955978-4.433967 4.92663-0.985326 1.72432-1.477989 3.941304-0.985326 5.911956 0.985326 5.419293 3.694972 14.040895 16.257878 15.272552 6.158287 0.492663 11.084917-2.709646 24.140486-2.463315 3.694972 0 7.143613 0.246331 10.345923 0.492663 12.316574 0.985326 20.445514 0.985326 29.313447-9.853259z" fill="#EDB91E" p-id="36991"></path><path d="M662.878037 834.324753c30.298773 38.920375-4.92663 67.002165-38.674044 78.826077L672.484965 921.279769c49.758961-57.395237-9.606928-86.955016-9.606928-86.955016z" fill="#EDB91E" p-id="36992"></path><path d="M543.653596 868.56483c16.50421-38.181381 83.013712-60.597546 148.045225-49.512629 3.694972 0.492663 7.143613 1.231657 10.838586 2.216984-9.85326-3.941304-20.199182-6.65095-30.545105-8.375271-55.917248-9.360597-112.819822 9.606928-127.107048 42.615347-2.709646 5.911956-3.694972 12.316574-3.20231 18.474862 0.492663-1.970652 1.231657-3.694972 1.970652-5.419293z" fill="#E3B117" p-id="36993"></path><path d="M989.020929 972.024056c-16.50421 37.935049-82.028386 59.858552-146.567236 49.019966s-103.459225-50.251624-87.201348-88.186673 82.028386-59.858552 146.567236-49.019966 103.705557 50.251624 87.201348 88.186673z" fill="#F1D239" p-id="36994"></path><path d="M989.020929 966.358432c-16.50421 37.935049-82.028386 59.858552-146.567236 49.019966s-103.459225-50.251624-87.201348-88.186673 82.028386-59.858552 146.567236-49.019967 103.705557 50.497955 87.201348 88.186674z" fill="#F6ED5F" p-id="36995"></path><path d="M973.502045 963.895117c-14.287226 32.762088-71.1898 51.975944-127.107049 42.615347s-89.910994-43.600674-75.623767-76.362761 71.1898-51.975944 127.107049-42.615348 89.910994 43.354342 75.623767 76.362762z" fill="#F1D239" p-id="36996"></path><path d="M848.365648 958.968487c9.606928 12.070243-1.477989 20.938177-12.070243 24.633149l15.026221 2.463315c15.518884-17.735867-2.955978-27.096464-2.955978-27.096464z m41.876353-51.729613c30.298773 38.920375-4.92663 67.002165-38.674043 78.826077l48.280972 8.128939c49.758961-57.148905-9.360597-86.955016-9.606929-86.955016z m-16.011546 40.152033c-6.897282 8.375271-18.474862 5.665624-28.574453 4.92663-3.202309-0.246331-6.897282-0.492663-11.331249-0.492663-11.331248 0-17.243204 2.709646-21.430839 2.463315-8.375271-0.492663-9.85326-6.897282-10.345923-10.345923-0.492663-2.955978 0.738994-5.665624 3.448641-7.143613 17.243204-6.65095 76.609093-10.099591 88.679336-10.838586h2.216984c-1.231657-3.941304-2.709646-7.389945-4.92663-10.838585l-1.970652 0.246331c-15.765215 2.216983-72.421458 9.606928-90.403657 17.735868-1.970652 1.231657-3.448641 2.955978-4.433966 4.926629-0.985326 1.72432-1.477989 3.941304-0.985326 5.911956 0.985326 5.419293 3.694972 14.040895 16.257878 15.272552 6.158287 0.492663 11.084917-2.709646 24.140486-2.463315 3.694972 0 7.143613 0.246331 10.345922 0.492663 12.070243 0.985326 20.199182 0.985326 29.313448-9.853259z" fill="#EA8113" p-id="36997"></path><path d="M846.887659 960.692807c9.606928 12.070243-1.477989 20.938177-12.070243 24.633149l15.026221 2.463315c15.518884-17.735867-2.955978-27.096464-2.955978-27.096464zM872.506134 948.868896c-6.897282 8.375271-18.474862 5.665624-28.574452 4.92663-3.202309-0.246331-6.897282-0.492663-11.331249-0.492663-11.331248 0-17.243204 2.709646-21.43084 2.463315-8.375271-0.492663-9.85326-6.897282-10.345922-10.345923-0.492663-2.955978 0.738994-5.665624 3.448641-7.143613 17.243204-6.65095 76.609093-10.099591 88.679336-10.838586h2.216983c-1.231657-3.941304-2.709646-7.389945-4.92663-10.838585l-1.970651 0.246331c-15.765215 2.216983-72.421458 9.606928-90.403657 17.735867-1.970652 1.231657-3.448641 2.955978-4.433967 4.92663-0.985326 1.72432-1.477989 3.941304-0.985326 5.911956 0.985326 5.419293 3.694972 14.040895 16.257879 15.272552 6.158287 0.492663 11.084917-2.709646 24.140485-2.463315 3.694972 0 7.143613 0.246331 10.345923 0.492663 12.316574 0.985326 20.445514 1.231657 29.313447-9.853259z" fill="#EDB91E" p-id="36998"></path><path d="M888.764013 908.963195c30.298773 38.920375-4.92663 67.002165-38.674044 78.826076l48.280972 8.128939c49.758961-57.148905-9.606928-86.955016-9.606928-86.955015z" fill="#EDB91E" p-id="36999"></path><path d="M769.539572 943.203272c16.50421-38.181381 83.013712-60.597546 148.045225-49.51263 3.694972 0.492663 7.143613 1.231657 10.838585 2.216984-9.85326-3.941304-20.199182-6.65095-30.545104-8.375271-55.917248-9.360597-112.819822 9.606928-127.107049 42.615348-2.709646 5.911956-3.694972 12.316574-3.202309 18.474861 0.492663-1.970652 1.231657-3.694972 1.970652-5.419292z" fill="#E3B117" p-id="37000"></path><path d="M964.141448 945.912918c-16.50421 37.935049-82.028386 59.858552-146.567236 49.019966s-103.459225-50.251624-87.201347-88.186673 82.028386-59.858552 146.567236-49.019966 103.705557 50.251624 87.201347 88.186673z" fill="#F1D239" p-id="37001"></path><path d="M964.141448 940.247294c-16.50421 37.935049-82.028386 59.858552-146.567236 49.019966s-103.459225-50.251624-87.201347-88.186673 82.028386-59.858552 146.567236-49.019966 103.705557 50.251624 87.201347 88.186673z" fill="#F6ED5F" p-id="37002"></path><path d="M948.622564 937.537647c-14.287226 32.762088-71.1898 51.975944-127.107048 42.615348s-89.910994-43.600674-75.623767-76.362762 71.1898-51.975944 127.107048-42.615347 89.910994 43.600674 75.623767 76.362761z" fill="#F1D239" p-id="37003"></path><path d="M823.732499 932.611018c9.606928 12.070243-1.477989 20.938177-12.070243 24.633148l15.026221 2.463315c15.518884-17.735867-2.955978-27.096464-2.955978-27.096463z m41.876354-51.729613c30.298773 38.920375-4.92663 67.002165-38.674044 78.826076l48.280972 8.128939c49.512629-56.902574-9.606928-86.708684-9.606928-86.955015z m-16.257879 40.152033c-6.897282 8.375271-18.474862 5.665624-28.574452 4.926629-3.202309-0.246331-6.897282-0.492663-11.331249-0.492663-11.331248 0-17.243204 2.709646-21.43084 2.463315-8.375271-0.492663-9.85326-6.897282-10.345922-10.345922-0.492663-2.955978 0.738994-5.665624 3.448641-7.143613 17.243204-6.65095 76.609093-10.099591 88.679336-10.838586h2.216983c-1.231657-3.941304-2.709646-7.389945-4.92663-10.838585l-1.970651 0.246331c-15.765215 2.216983-72.421458 9.606928-90.403657 17.735867-1.970652 1.231657-3.448641 2.955978-4.433967 4.92663-0.985326 1.72432-1.477989 3.941304-0.985326 5.911956 0.985326 5.419293 3.694972 14.040895 16.257879 15.272552 6.158287 0.492663 11.084917-2.709646 24.140486-2.463315 3.694972 0 7.143613 0.246331 10.345922 0.492663 12.316574 0.985326 20.445514 0.985326 29.313447-9.853259z" fill="#EA8113" p-id="37004"></path><path d="M822.008179 934.335338c9.606928 12.070243-1.477989 20.938177-12.070243 24.633149l15.026221 2.463315c15.518884-17.735867-2.955978-27.096464-2.955978-27.096464zM847.872985 922.757758c-6.897282 8.375271-18.474862 5.665624-28.574452 4.92663-3.202309-0.246331-6.897282-0.492663-11.331249-0.492663-11.331248 0-17.243204 2.709646-21.430839 2.463315-8.375271-0.492663-9.85326-6.897282-10.345923-10.345923-0.492663-2.955978 0.738994-5.665624 3.448641-7.143613 17.243204-6.65095 76.609093-10.099591 88.679336-10.838586h2.216983c-1.231657-3.941304-2.709646-7.389945-4.926629-10.838585l-1.970652 0.246331c-15.765215 2.216983-72.421458 9.606928-90.403657 17.735868-1.970652 1.231657-3.448641 2.955978-4.433967 4.926629-0.985326 1.72432-1.477989 3.941304-0.985326 5.911956 0.985326 5.419293 3.694972 14.040895 16.257879 15.272552 6.158287 0.492663 11.084917-2.709646 24.140486-2.463314 3.694972 0 7.143613 0.246331 10.345922 0.492663 12.070243 0.985326 20.199182 0.985326 29.313447-9.85326z" fill="#EDB91E" p-id="37005"></path><path d="M863.884532 882.852057c30.298773 38.920375-4.92663 67.002165-38.674044 78.826076l48.280972 8.128939c49.758961-57.395237-9.606928-86.955016-9.606928-86.955015z" fill="#EDB91E" p-id="37006"></path><path d="M744.660091 916.845802c16.50421-38.181381 83.013712-60.597546 148.045225-49.512629 3.694972 0.492663 7.143613 1.231657 10.838586 2.216983-9.85326-3.941304-20.199182-6.65095-30.545105-8.37527-55.917248-9.360597-112.819822 9.606928-127.107048 42.615347-2.709646 5.911956-3.694972 12.316574-3.20231 18.474862 0.738994-1.72432 1.231657-3.448641 1.970652-5.419293z" fill="#E3B117" p-id="37007"></path><path d="M992.223238 902.804907c-16.257878 37.935049-82.028386 59.858552-146.567236 49.019967s-103.459225-50.251624-87.201347-88.186673 82.028386-59.858552 146.567236-49.019967 103.705557 50.251624 87.201347 88.186673z" fill="#F1D239" p-id="37008"></path><path d="M992.223238 897.139283c-16.50421 37.935049-82.028386 59.858552-146.567236 49.019966s-103.459225-50.251624-87.201347-88.186673 82.028386-59.858552 146.567236-49.019966 103.705557 50.497955 87.201347 88.186673z" fill="#F6ED5F" p-id="37009"></path><path d="M976.704354 894.675968c-14.287226 32.762088-71.1898 51.975944-127.107048 42.615348s-89.910994-43.600674-75.623767-76.362762 71.1898-51.975944 127.107048-42.615347 89.910994 43.600674 75.623767 76.362761z" fill="#F1D239" p-id="37010"></path><path d="M851.814289 889.749338c9.606928 12.070243-1.477989 20.938177-12.070243 24.633149l15.026221 2.463315c15.518884-17.735867-2.955978-27.096464-2.955978-27.096464z m41.876353-51.729612c30.298773 38.920375-4.92663 67.002165-38.674043 78.826076l48.280971 8.128939c49.512629-57.148905-9.606928-86.955016-9.606928-86.955015z m-16.257878 40.152032c-6.897282 8.375271-18.474862 5.665624-28.574453 4.92663-3.202309-0.246331-6.897282-0.492663-11.331248-0.492663-11.331248 0-17.243204 2.709646-21.43084 2.463315-8.375271-0.492663-9.85326-6.897282-10.345922-10.345922-0.492663-2.955978 0.738994-5.665624 3.448641-7.143614 17.243204-6.65095 76.609093-10.099591 88.679336-10.838585h2.216983c-1.231657-3.941304-2.709646-7.389945-4.92663-10.838586l-1.970652 0.246332c-15.765215 2.216983-72.421458 9.606928-90.403656 17.735867-1.970652 1.231657-3.448641 2.955978-4.433967 4.92663-0.985326 1.72432-1.477989 3.941304-0.985326 5.911956 0.985326 5.419293 3.694972 14.040895 16.257878 15.272552 6.158287 0.492663 11.084917-2.709646 24.140486-2.463315 3.694972 0 7.143613 0.246331 10.345923 0.492663 12.316574 0.985326 20.445514 0.985326 29.313447-9.85326z" fill="#EA8113" p-id="37011"></path><path d="M850.3363 891.473659c9.606928 12.070243-1.477989 20.938177-12.070243 24.633149l15.026221 2.463315c15.272552-17.982199-2.955978-27.096464-2.955978-27.096464zM875.954775 879.649747c-6.897282 8.375271-18.474862 5.665624-28.574453 4.92663-3.202309-0.246331-6.897282-0.492663-11.331248-0.492663-11.331248 0-17.243204 2.709646-21.43084 2.463315-8.375271-0.492663-9.85326-6.897282-10.345922-10.345922-0.492663-2.955978 0.738994-5.665624 3.448641-7.143614 17.243204-6.65095 76.609093-10.099591 88.679336-10.838585h2.216983c-1.231657-3.941304-2.709646-7.389945-4.92663-10.838586l-1.970652 0.246332c-15.765215 2.216983-72.421458 9.606928-90.403656 17.735867-1.970652 1.231657-3.448641 2.955978-4.433967 4.92663-0.985326 1.72432-1.477989 3.941304-0.985326 5.911956 0.985326 5.419293 3.694972 14.040895 16.257878 15.272552 6.158287 0.492663 11.084917-2.709646 24.140486-2.463315 3.694972 0 7.143613 0.246331 10.345923 0.492663 12.070243 1.231657 20.199182 1.231657 29.313447-9.85326z" fill="#EDB91E" p-id="37012"></path><path d="M892.212653 839.744046c30.298773 38.920375-4.92663 67.002165-38.674043 78.826077l48.280971 8.128939c49.512629-57.148905-9.606928-86.955016-9.606928-86.955016z" fill="#EDB91E" p-id="37013"></path><path d="M772.741881 873.984123c16.50421-38.181381 83.013712-60.597546 148.045225-49.512629 3.694972 0.492663 7.143613 1.231657 10.838586 2.216983-9.85326-3.941304-20.199182-6.65095-30.545105-8.37527-55.917248-9.360597-112.819822 9.606928-127.107048 42.615347-2.709646 5.911956-3.694972 12.316574-3.20231 18.474862 0.738994-1.970652 1.231657-3.694972 1.970652-5.419293z" fill="#E3B117" p-id="37014"></path><path d="M1017.102718 860.435891c-16.50421 37.935049-82.028386 59.858552-146.567236 49.019967s-103.459225-50.251624-87.201347-88.186673 82.028386-59.858552 146.567236-49.019967 103.459225 50.251624 87.201347 88.186673z" fill="#F1D239" p-id="37015"></path><path d="M1017.102718 854.770267c-16.50421 37.935049-82.028386 59.858552-146.567236 49.019966s-103.459225-50.251624-87.201347-88.186673 82.028386-59.858552 146.567236-49.019966 103.459225 50.251624 87.201347 88.186673z" fill="#F6ED5F" p-id="37016"></path><path d="M1001.583834 852.306952c-14.287226 32.762088-71.1898 51.975944-127.107048 42.615348s-89.910994-43.600674-75.623767-76.362762 71.1898-51.975944 127.107048-42.615347 89.910994 43.354342 75.623767 76.362761z" fill="#F1D239" p-id="37017"></path><path d="M876.447438 847.380322c9.606928 12.070243-1.477989 20.938177-12.070243 24.633149l15.026221 2.463315c15.518884-17.735867-2.955978-27.096464-2.955978-27.096464z m41.876353-51.729612c30.298773 38.920375-4.92663 67.002165-38.674044 78.826076l48.280972 8.128939c49.758961-57.148905-9.360597-86.955016-9.606928-86.955015z m-16.257878 39.905701c-6.897282 8.375271-18.474862 5.665624-28.574453 4.92663-3.202309-0.246331-6.897282-0.492663-11.331248-0.492663-11.331248 0-17.243204 2.709646-21.43084 2.463315-8.375271-0.492663-9.85326-6.897282-10.345922-10.345923-0.492663-2.955978 0.738994-5.665624 3.44864-7.143613 17.243204-6.65095 76.609093-10.099591 88.679337-10.838586h2.216983c-1.231657-3.941304-2.709646-7.389945-4.92663-10.838585l-1.970652 0.246331c-15.765215 2.216983-72.421458 9.606928-90.403656 17.735868-1.970652 1.231657-3.448641 2.955978-4.433967 4.926629-0.985326 1.72432-1.477989 3.941304-0.985326 5.911956 0.985326 5.419293 3.694972 14.040895 16.257878 15.272552 6.158287 0.492663 11.084917-2.709646 24.140486-2.463315 3.694972 0 7.143613 0.246331 10.345923 0.492663 12.562906 0.985326 20.445514 1.231657 29.313447-9.853259z" fill="#EA8113" p-id="37018"></path><path d="M874.969449 849.104643c9.606928 12.070243-1.477989 20.938177-12.070243 24.633149l15.026221 2.463315c15.518884-17.982199-2.955978-27.096464-2.955978-27.096464zM900.587924 837.280731c-6.897282 8.375271-18.474862 5.665624-28.574453 4.92663-3.202309-0.246331-6.897282-0.492663-11.331248-0.492663-11.331248 0-17.243204 2.709646-21.43084 2.463315-8.375271-0.492663-9.85326-6.897282-10.345922-10.345923-0.492663-2.955978 0.738994-5.665624 3.448641-7.143613 17.243204-6.65095 76.609093-10.099591 88.679336-10.838585h2.216983c-1.231657-3.941304-2.709646-7.389945-4.92663-10.838586l-1.970652 0.492663c-15.765215 2.216983-72.421458 9.606928-90.403656 17.735867-1.970652 1.231657-3.448641 2.955978-4.433967 4.92663-0.985326 1.72432-1.477989 3.941304-0.985326 5.911956 0.985326 5.419293 3.694972 14.040895 16.257878 15.272552 6.158287 0.492663 11.084917-2.709646 24.140486-2.463315 3.694972 0 7.143613 0.246331 10.345923 0.492663 12.316574 0.738994 20.445514 0.738994 29.313447-10.099591z" fill="#EDB91E" p-id="37019"></path><path d="M916.845802 797.37503c30.298773 38.920375-4.92663 67.002165-38.674044 78.826077l48.280972 8.128939c49.758961-57.148905-9.606928-86.955016-9.606928-86.955016z" fill="#EDB91E" p-id="37020"></path><path d="M797.621362 831.615107c16.50421-38.181381 83.013712-60.597546 148.045224-49.512629 3.694972 0.492663 7.143613 1.231657 10.838586 2.216983-9.85326-3.941304-20.199182-6.65095-30.545105-8.37527-55.917248-9.360597-112.819822 9.606928-127.107048 42.615347-2.709646 5.911956-3.694972 12.316574-3.202309 18.474862 0.492663-1.970652 1.231657-3.694972 1.970652-5.419293z" fill="#E3B117" p-id="37021"></path><path d="M860.18956 712.883329c56.16358-14.040895 91.142651-49.019966 105.183546-105.183546 14.040895 56.16358 49.019966 91.142651 105.183545 105.183546-56.16358 14.040895-91.142651 49.019966-105.183545 105.183546-14.040895-56.16358-49.019966-91.142651-105.183546-105.183546z" fill="#F5D44B" p-id="37022"></path><path d="M851.567958 703.769064c56.16358-14.040895 91.142651-49.019966 105.183545-105.183546 14.040895 56.16358 49.019966 91.142651 105.183546 105.183546-56.16358 14.040895-91.142651 49.019966-105.183546 105.183546-13.794563-55.917248-49.019966-91.142651-105.183545-105.183546z" fill="#FFFFFE" p-id="37023"></path></svg>