<?xml version="1.0" standalone="no"?><!DOCTYPE svg PUBLIC "-//W3C//DTD SVG 1.1//EN" "http://www.w3.org/Graphics/SVG/1.1/DTD/svg11.dtd"><svg t="1749654247424" class="icon" viewBox="0 0 1024 1024" version="1.1" xmlns="http://www.w3.org/2000/svg" p-id="18724" xmlns:xlink="http://www.w3.org/1999/xlink" width="200" height="200"><path d="M800.390737 878.376421L647.635088 990.405614A173.541053 173.541053 0 0 1 545.019509 1024h-95.214035a173.594947 173.594947 0 0 1-112.083088-41.049825l-123.580632-104.573754A173.559018 173.559018 0 0 1 152.701754 745.903158V55.709193A55.727158 55.727158 0 0 1 208.428912 0H817.403509a53.894737 53.894737 0 0 1 53.894737 53.894737v684.570947a173.505123 173.505123 0 0 1-70.907509 139.910737" fill="#AAC44C" p-id="18725"></path><path d="M871.298246 179.649123h-71.85965V143.719298a17.964912 17.964912 0 1 0-35.929824 0v35.929825h-71.859649V143.719298a17.964912 17.964912 0 1 0-35.929825 0v35.929825h-71.859649V143.719298a17.964912 17.964912 0 1 0-35.929824 0v35.929825h-71.85965V143.719298a17.964912 17.964912 0 1 0-35.929824 0v35.929825h-71.859649V143.719298a17.964912 17.964912 0 1 0-35.929825 0v35.929825h-71.859649V143.719298a17.964912 17.964912 0 1 0-35.929824 0v35.929825H152.701754a17.964912 17.964912 0 1 0 0 35.929824h71.85965v35.929825a17.964912 17.964912 0 1 0 35.929824 0v-35.929825h71.859649v35.929825a17.964912 17.964912 0 1 0 35.929825 0v-35.929825h71.859649v35.929825a17.964912 17.964912 0 1 0 35.929824 0v-35.929825h71.85965v35.929825a17.964912 17.964912 0 1 0 35.929824 0v-35.929825h71.859649v35.929825a17.964912 17.964912 0 1 0 35.929825 0v-35.929825h71.859649v35.929825a17.964912 17.964912 0 1 0 35.929824 0v-35.929825h71.85965a17.964912 17.964912 0 1 0 0-35.929824" fill="#63743A" p-id="18726"></path><path d="M260.293614 353.28a104.250386 104.250386 0 0 0 205.75214 27.863579l-205.75214-27.863579M561.259789 358.130526a104.304281 104.304281 0 0 0 113.73586 82.692492 104.286316 104.286316 0 0 0 92.627088-105.777404l-206.362948 23.084912" fill="#F0F9FD" p-id="18727"></path><path d="M44.912281 287.438596c-19.761404 0-35.929825-16.168421-35.929825-35.929824V143.719298c0-19.761404 16.168421-35.929825 35.929825-35.929824s35.929825 16.168421 35.929824 35.929824v107.789474c0 19.761404-16.168421 35.929825-35.929824 35.929824" fill="#ECF0F1" p-id="18728"></path><path d="M80.842105 161.684211h71.859649v71.859649H80.842105V161.684211z" fill="#A5A5A4" p-id="18729"></path><path d="M843.398737 509.88014l-22.510035-11.264c0.538947-15.629474-0.538947-31.690105-3.826527-48.074105a17.964912 17.964912 0 1 0-35.229193 7.09614c1.544982 7.653053 2.371368 15.28814 2.874386 22.887299l-13.16828-6.575158a17.964912 17.964912 0 0 0-16.060632 32.139228l27.127018 13.563509a148.785404 148.785404 0 0 1-11.030456 35.157333l-18.000843-9.000421a17.964912 17.964912 0 1 0-16.060631 32.139228l14.964772 7.491368a136.712982 136.712982 0 0 1-24.558035 23.228632l-23.569965-23.569965a17.964912 17.964912 0 0 0-25.402386 25.402386l16.168421 16.168421a150.761544 150.761544 0 0 1-24.971228 7.419509 17.964912 17.964912 0 0 0 7.078175 35.229193 186.080561 186.080561 0 0 0 45.109895-15.413895l28.474386 28.456421a17.839158 17.839158 0 0 0 12.701193 5.263719 17.946947 17.946947 0 0 0 12.701193-30.666105l-22.59986-22.599859a172.570947 172.570947 0 0 0 31.77993-32.462597l23.983158 11.982597a18.018807 18.018807 0 0 0 24.108912-8.030316 17.964912 17.964912 0 0 0-8.04828-24.108913l-21.57586-10.796912c5.12-10.976561 9.14414-22.581895 12.018526-34.654316l11.461614 5.730807a18.018807 18.018807 0 0 0 24.108913-8.030315 17.964912 17.964912 0 0 0-8.048281-24.108913" fill="#63743A" p-id="18730"></path><path d="M649.162105 879.795649l-135.006316-30.001403a19.833263 19.833263 0 0 0-4.365473-0.485053h-139.317895c-11.138246 0-20.156632-9.018386-20.156632-20.156632V795.486316c0-10.257965 7.724912-18.899088 17.928983-20.030877l141.635368-15.737264c1.401263-0.143719 2.802526-0.449123 4.149895-0.898245l133.12-44.391298A20.156632 20.156632 0 0 1 673.684211 733.561263v126.562807c0 12.880842-11.946667 22.45614-24.522106 19.671579" fill="#09070B" p-id="18731"></path><path d="M494.035088 659.617684a85.261474 85.261474 0 0 1-60.469895-25.025123 3.00014 3.00014 0 0 0-2.08393-0.862315h-47.301614a38.606596 38.606596 0 0 1-33.073403-18.432 38.606596 38.606596 0 0 1-1.724632-37.834106l20.785404-41.588772a18.000842 18.000842 0 0 1 32.157193 16.078597l-20.803369 41.570807a2.802526 2.802526 0 0 0 0.143719 2.874386 2.766596 2.766596 0 0 0 2.515088 1.401263h47.301614c10.222035 0 20.264421 4.16786 27.486316 11.389754a49.655018 49.655018 0 0 0 70.135017 0 39.199439 39.199439 0 0 1 27.486316-11.389754h47.301614a2.766596 2.766596 0 0 0 2.515088-1.401263 2.838456 2.838456 0 0 0 0.143719-2.892351l-20.803368-41.552842a17.964912 17.964912 0 0 1 32.157193-16.078597l20.785403 41.588772a38.606596 38.606596 0 0 1-1.724631 37.834106 38.606596 38.606596 0 0 1-33.073404 18.432h-47.301614a3.03607 3.03607 0 0 0-2.08393 0.862315A85.243509 85.243509 0 0 1 494.035088 659.617684" fill="#63743A" p-id="18732"></path><path d="M979.087719 287.438596c19.761404 0 35.929825-16.168421 35.929825-35.929824V143.719298c0-19.761404-16.168421-35.929825-35.929825-35.929824s-35.929825 16.168421-35.929824 35.929824v107.789474c0 19.761404 16.168421 35.929825 35.929824 35.929824" fill="#ECF0F1" p-id="18733"></path><path d="M871.298246 161.684211h71.859649v71.859649h-71.859649V161.684211z" fill="#A5A5A4" p-id="18734"></path><path d="M431.157895 790.45614c-29.73193 0-57.37993 6.593123-80.842106 17.839158v20.857263c0 11.138246 9.018386 20.156632 20.156632 20.156632h139.317895c1.473123 0 2.928281 0.161684 4.365473 0.485053l58.152422 12.916772C549.420912 820.313825 494.879439 790.45614 431.157895 790.45614" fill="#C03A2B" p-id="18735"></path><path d="M611.36393 427.061895A44.822456 44.822456 0 0 0 637.754386 386.245614c0-14.120421-6.647018-26.55214-16.833123-34.78007l-59.661474 6.664982c6.126035 29.983439 25.061053 54.397754 50.104141 68.931369M415.81586 374.334877A44.588912 44.588912 0 0 0 404.210526 404.210526a44.732632 44.732632 0 0 0 21.198597 37.99579 103.927018 103.927018 0 0 0 40.636631-61.062737l-50.229894-6.808702" fill="#464F5D" p-id="18736"></path></svg>