<?xml version="1.0" standalone="no"?><!DOCTYPE svg PUBLIC "-//W3C//DTD SVG 1.1//EN" "http://www.w3.org/Graphics/SVG/1.1/DTD/svg11.dtd"><svg t="1749860397614" class="icon" viewBox="0 0 1024 1024" version="1.1" xmlns="http://www.w3.org/2000/svg" p-id="39928" xmlns:xlink="http://www.w3.org/1999/xlink" width="200" height="200"><path d="M518.505412 275.034353C557.116235 223.774118 620.754824 189.741176 689.392941 189.741176c116.434824 0 208.715294 104.809412 208.715294 231.905883 0 49.573647-14.034824 96.978824-38.490353 134.204235-0.301176 0.602353-0.301176 0.602353-0.662588 1.144471-40.478118 70.716235-137.637647 158.238118-292.743529 265.908706-28.641882 19.877647-66.620235 19.877647-95.262118-0.030118-155.045647-107.730824-252.175059-195.312941-291.418353-263.951059A249.042824 249.042824 0 0 1 139.143529 421.647059c0-127.096471 92.280471-231.905882 208.715295-231.905883 68.367059 0 131.975529 34.093176 170.646588 85.293177z" fill="#FF4E5C" p-id="39929"></path><path d="M518.565647 327.860706c26.624-64.361412 95.382588-111.555765 170.827294-111.555765 100.954353 0 182.151529 92.250353 182.15153 205.342118 0 44.423529-12.528941 86.738824-35.056942 121.133176l-0.602353 1.024c-37.948235 66.288941-132.758588 151.702588-284.822588 257.264941a56.922353 56.922353 0 0 1-64.933647 0c-152.033882-105.622588-246.814118-191.096471-284.400941-256.752941A222.479059 222.479059 0 0 1 165.707294 421.647059c0-113.091765 81.197176-205.342118 182.15153-205.342118 75.143529 0 143.902118 47.344941 170.706823 111.555765z" fill="#FF4E5C" p-id="39930"></path><path d="M860.16 413.214118a195.463529 195.463529 0 0 1-34.123294 111.435294c-35.870118 59.904-125.560471 137.968941-269.071059 234.255059l-13.191529 8.82447a45.537882 45.537882 0 0 1-50.356706 0c-115.561412-76.769882-197.722353-142.185412-246.543059-196.336941 47.555765 22.889412 101.195294 35.779765 157.906823 35.779765 195.614118 0 354.183529-152.907294 354.18353-341.534118 0-7.469176-0.240941-14.908235-0.752941-22.256941 60.024471 28.732235 101.948235 93.967059 101.948235 169.863529z" fill="#F6233C" p-id="39931"></path></svg>