<?xml version="1.0" standalone="no"?><!DOCTYPE svg PUBLIC "-//W3C//DTD SVG 1.1//EN" "http://www.w3.org/Graphics/SVG/1.1/DTD/svg11.dtd"><svg t="1749883505993" class="icon" viewBox="0 0 1024 1024" version="1.1" xmlns="http://www.w3.org/2000/svg" p-id="48069" xmlns:xlink="http://www.w3.org/1999/xlink" width="200" height="200"><path d="M152.32 12.8h719.36C948.48 12.8 1011.2 75.52 1011.2 152.32v719.36c0 76.8-62.72 139.52-139.52 139.52H152.32C75.52 1011.2 12.8 948.48 12.8 871.68V152.32C12.8 75.52 75.52 12.8 152.32 12.8z" fill="#F3B355" p-id="48070"></path><path d="M871.68 1024H152.32C67.84 1024 0 956.16 0 871.68V152.32C0 67.84 67.84 0 152.32 0h719.36C956.16 0 1024 67.84 1024 152.32v719.36C1024 956.16 956.16 1024 871.68 1024zM152.32 25.6C81.92 25.6 25.6 81.92 25.6 152.32v719.36c0 70.4 56.32 126.72 126.72 126.72h719.36c70.4 0 126.72-56.32 126.72-126.72V152.32C998.4 81.92 942.08 25.6 871.68 25.6H152.32z" fill="#723A22" p-id="48071"></path><path d="M499.2 0h25.6v1024h-25.6zM243.2 0h25.6v1024h-25.6zM768 0h25.6v1024h-25.6z" fill="#723A22" p-id="48072"></path><path d="M0 243.2h1024v25.6H0zM0 499.2h1024v25.6H0zM0 768h1024v25.6H0z" fill="#723A22" p-id="48073"></path><path d="M779.52 523.52m-128 0a128 128 0 1 0 256 0 128 128 0 1 0-256 0Z" fill="#FFFFFF" p-id="48074"></path><path d="M779.52 664.32c-78.08 0-140.8-62.72-140.8-140.8s62.72-140.8 140.8-140.8 140.8 62.72 140.8 140.8-62.72 140.8-140.8 140.8z m0-256c-64 0-115.2 51.2-115.2 115.2s51.2 115.2 115.2 115.2 115.2-51.2 115.2-115.2-51.2-115.2-115.2-115.2z" fill="#723A22" p-id="48075"></path><path d="M267.52 267.52m-128 0a128 128 0 1 0 256 0 128 128 0 1 0-256 0Z" fill="#723A22" p-id="48076"></path><path d="M267.52 408.32c-78.08 0-140.8-62.72-140.8-140.8s62.72-140.8 140.8-140.8 140.8 62.72 140.8 140.8-62.72 140.8-140.8 140.8z m0-256c-64 0-115.2 51.2-115.2 115.2s51.2 115.2 115.2 115.2 115.2-51.2 115.2-115.2-51.2-115.2-115.2-115.2z" fill="#FFFFFF" p-id="48077"></path><path d="M512 512m-38.4 0a38.4 38.4 0 1 0 76.8 0 38.4 38.4 0 1 0-76.8 0Z" fill="#723A22" p-id="48078"></path></svg>