<?xml version="1.0" standalone="no"?><!DOCTYPE svg PUBLIC "-//W3C//DTD SVG 1.1//EN" "http://www.w3.org/Graphics/SVG/1.1/DTD/svg11.dtd"><svg t="1749860095279" class="icon" viewBox="0 0 1024 1024" version="1.1" xmlns="http://www.w3.org/2000/svg" p-id="30030" xmlns:xlink="http://www.w3.org/1999/xlink" width="200" height="200"><path d="M512 989.1026963c259.29429019 0 469.48588027-197.81925674 469.48588027-441.86906295s24.66181754-249.24176813-469.48588027-249.24176941S42.51411973 303.18382588 42.51411973 547.23363335s210.19159008 441.86906294 469.48588027 441.86906295z" fill="#FF5C00" p-id="30031"></path><path d="M42.51411973 464.38318398a469.48588027 441.86906294 0 1 0 938.97176054 0 469.48588027 441.86906294 0 1 0-938.97176054 0Z" fill="#FFCC00" p-id="30032"></path><path d="M911.00776423 231.4077203a430.15953319 430.15953319 0 0 1 40.32055246 76.82998298L373.00456231 886.56145634a483.0181199 483.0181199 0 0 1-83.9551216-33.19541251z m-245.01639522-184.56318483c74.59302082 24.35803212 140.62482898 65.92134132 192.76537804 119.6360489L217.05240019 808.21254892c-60.28751076-45.89914896-108.25792096-105.52385612-138.52595136-173.87547688z" fill="#FFE3B6" p-id="30033"></path><path d="M97.74775309 450.57477531a414.25224691 372.82702222 0 1 0 828.50449382 0 414.25224691 372.82702222 0 1 0-828.50449382 0Z" fill="#FF7325" p-id="30034"></path><path d="M125.36456912 450.57477531a386.63543088 345.2102062 0 1 0 773.27086176 0 386.63543088 345.2102062 0 1 0-773.27086176 0Z" fill="#FFB329" p-id="30035"></path><path d="M895.87374837 492c-22.92195809 171.11379437-186.05449292 303.7849815-383.87374837 303.7849815s-360.95179158-132.67118585-383.87374837-303.7849815z" fill="#FF9B1A" p-id="30036"></path><path d="M512 105.36456913c139.90679262 0 262.44260726 66.33559358 330.32474169 165.70089875H181.70287469c67.88213442-99.36530519 190.41794907-165.70089876 330.32474169-165.70089875z" fill="#FFCC00" p-id="30037"></path><path d="M609.92923117 489.45925245l122.6186651-18.03378028 0.38663585 52.99666993c-8.28504494 32.4221421-21.2649491 59.51423904-39.05017934 81.24867446a168.18641225 168.18641225 0 0 1-66.142275 49.24078333c-26.3464429 11.04672615-59.87325852 16.59770626-100.55282915 16.59770753-49.37886783 0-89.6994203-6.73850278-121.01688888-20.24312732-31.28985348-13.50462325-58.29909998-37.22746815-81.02773949-71.22376878-22.72863952-33.96868425-34.07915108-77.46517017-34.07915238-130.48945778 0-70.69904971 19.99457469-124.99371173 59.95610897-162.96683395 39.98915067-37.9731222 96.52077353-56.94587511 169.65010395-56.94587639 57.22204414 0 102.20983815 10.88102525 134.96338204 32.61546066 12.89705372 8.56121268 36.89606637 23.75046259 71.96942283 45.56774716-0.44186863 21.32018188-0.11046684 39.54728074 0.99420541 54.62606253l-123.94427229 25.95980834c-4.33583975-13.03513695-8.89261446-22.53532223-13.64270646-28.55578865a79.59166547 79.59166547 0 0 0-28.80434001-23.30859267 87.15867275 87.15867275 0 0 0-38.11120672-8.1745781c-31.81457257 0-56.20022107 12.04093154-73.12933041 36.12279593-12.81420326 17.86808068-19.22130427 45.92676534-19.22130426 84.17605657 0 47.39045705 7.64985773 79.86783321 22.9219581 97.43212848 15.29971675 17.59191165 36.78559952 26.3740593 64.45764962 26.37405928 26.8435456 0 47.1419057-7.09752225 60.89508028-21.26494781 13.72555822-14.16742685 23.69522853-34.76957235 29.90901224-61.75120247z" fill="#FF5C00" p-id="30038"></path><path d="M609.92923117 434.22562038L732.93453212 469.18851004c-8.28504494 32.4221421-21.2649491 59.51423904-39.05017934 81.24867316a168.18641225 168.18641225 0 0 1-66.142275 49.24078462c-26.3464429 11.04672615-59.87325852 16.59770626-100.55282915 16.59770626-49.37886783 0-89.6994203-6.73850278-121.01688888-20.24312605-31.28985348-13.50462325-58.29909998-37.22746815-81.02773949-71.22377008-22.72863952-33.96868425-34.07915108-77.46517017-34.07915238-130.48945777 0-70.69904971 19.99457469-124.99371173 59.95610897-162.96683394 39.98915067-37.9731222 96.52077353-56.94587511 169.65010395-56.9458751 57.22204414 0 102.20983815 10.88102525 134.96338204 32.61545938 32.7259275 21.7620518 57.05634323 55.15078291 72.96362824 100.19381098l-123.94427229 25.95980703c-4.33583975-13.03513695-8.89261446-22.53532223-13.64270646-28.55578864a79.59166547 79.59166547 0 0 0-28.80434001-23.30859267 87.15867275 87.15867275 0 0 0-38.11120672-8.1745781c-31.81457257 0-56.20022107 12.04093154-73.12933041 36.12279593-12.81420326 17.86808068-19.22130427 45.92676534-19.22130426 84.17605657 0 47.39045705 7.64985773 79.86783321 22.9219581 97.43212849 15.29971675 17.59191165 36.78559952 26.3740593 64.45764962 26.37406057 26.8435456 0 47.1419057-7.09752225 60.89508028-21.26494911 13.72555822-14.16742685 23.69522853-34.76957235 29.90901224-61.75120119z" fill="#FFDC96" p-id="30039"></path><path d="M655.60744516 207.02207052c24.41326619 16.21107169 44.15928951 38.91209483 59.21045493 68.075453l-44.32499042 44.26975636-65.83849088 13.80840865c-4.33583975-13.03513695-8.89261446-22.53532223-13.64270646-28.55578864a79.59166547 79.59166547 0 0 0-28.80434001-23.30859266 87.15867275 87.15867275 0 0 0-38.11120672-8.17457811c-31.81457257 0-56.20022107 12.04093154-73.12933041 36.12279593-12.81420326 17.86808068-19.22130427 45.92676534-19.22130426 84.17605657 0 47.39045705 7.64985773 79.86783321 22.9219581 97.43212849 7.15275503 8.22981087 15.63111855 14.52644503 25.49032202 18.88990245l-82.38096436 82.35334668c-27.75490053-13.97410956-51.97484815-36.39896367-72.63222643-67.30218129-12.84181965-19.22130427-22.06583591-41.45284108-27.61681733-66.7774622l279.48218345-279.48218215c31.28985348 4.97102697 57.49821187 14.47121226 78.62507646 28.47293692z" fill="#FFECBD" p-id="30040"></path></svg>